<?xml version="1.0" encoding="utf-8"?>
<!-- Generator: Adobe Illustrator 27.0.0, SVG Export Plug-In . SVG Version: 6.00 Build 0)  -->
<svg version="1.1" id="Layer_1" xmlns="http://www.w3.org/2000/svg" xmlns:xlink="http://www.w3.org/1999/xlink" x="0px" y="0px"
	 viewBox="0 0 15.3 17.7" style="enable-background:new 0 0 15.3 17.7;" xml:space="preserve">
<path d="M13.8,6.5c-1.1,0.6-1.7,1.8-1.7,3c0,1.4,0.8,2.7,2.1,3.2c-0.2,0.8-0.6,1.6-1.1,2.3c-0.7,1-1.4,2-2.5,2s-1.4-0.6-2.6-0.6
	c-1.2,0-1.7,0.7-2.6,0.7s-1.7-0.9-2.5-2c-1.1-1.6-1.6-3.4-1.7-5.3c0-3.1,2-4.7,4-4.7c1.1,0,1.9,0.7,2.6,0.7c0.6,0,1.6-0.7,2.8-0.7
	C11.9,4.9,13.1,5.5,13.8,6.5z M10.1,3.6C10.6,3,10.9,2.2,11,1.4c0-0.1,0-0.2,0-0.3C10,1.2,9.2,1.6,8.6,2.3C8,2.9,7.7,3.6,7.7,4.4
	c0,0.1,0,0.2,0,0.3c0.1,0,0.1,0,0.2,0C8.8,4.7,9.6,4.3,10.1,3.6z"/>
</svg>
