<?xml version="1.0" encoding="utf-8"?>
<!-- Generator: Adobe Illustrator 27.0.0, SVG Export Plug-In . SVG Version: 6.00 Build 0)  -->
<svg version="1.1" id="Layer_1" xmlns="http://www.w3.org/2000/svg" xmlns:xlink="http://www.w3.org/1999/xlink" x="0px" y="0px"
	 viewBox="0 0 612 792" style="enable-background:new 0 0 612 792;" xml:space="preserve">
<path d="M310.4,392h-1c-0.2-1.7-1.6-2.9-3.3-3c-1.7,0-3.1,1.3-3.3,3h-1c-1.2,0-2.1,0.9-2.1,2.1v7.7c0,1.2,0.9,2.1,2.1,2.1h8.7
	c1.2,0,2.1-0.9,2.1-2.1v-7.7C312.5,393,311.5,392,310.4,392z M306,390.1c1.1,0,2,0.8,2.2,1.9h-4.4C304,390.9,304.9,390.2,306,390.1z
	 M311.4,401.8c0,0.6-0.5,1-1,1h-8.7c-0.6,0-1-0.5-1-1v-7.7c0-0.6,0.5-1,1-1h8.7c0.6,0,1,0.5,1,1V401.8z"/>
</svg>
