<?xml version="1.0" encoding="utf-8"?>
<!-- Generator: Adobe Illustrator 27.0.0, SVG Export Plug-In . SVG Version: 6.00 Build 0)  -->
<svg version="1.1" id="Layer_1" xmlns="http://www.w3.org/2000/svg" xmlns:xlink="http://www.w3.org/1999/xlink" x="0px" y="0px"
	 viewBox="0 0 612 792" style="enable-background:new 0 0 612 792;" xml:space="preserve">
<path d="M312.8,402.2l-3.9-3.9c0.7-0.9,1.1-2.1,1.1-3.3c0-3.1-2.5-5.5-5.6-5.5c-3.1,0-5.5,2.5-5.5,5.5c0,3.1,2.5,5.6,5.5,5.6
	c1.3,0,2.4-0.4,3.3-1.1l3.9,3.9c0.2,0.2,0.3,0.2,0.5,0.2s0.4-0.1,0.5-0.2C313.1,403,313.1,402.5,312.8,402.2z M300,395
	c0-2.5,2-4.4,4.4-4.4c2.5,0,4.5,2,4.5,4.4s-2,4.5-4.5,4.5C302,399.5,300,397.5,300,395z"/>
</svg>
