<?xml version="1.0" encoding="utf-8"?>
<!-- Generator: Adobe Illustrator 27.0.0, SVG Export Plug-In . SVG Version: 6.00 Build 0)  -->
<svg version="1.1" id="Layer_1" xmlns="http://www.w3.org/2000/svg" xmlns:xlink="http://www.w3.org/1999/xlink" x="0px" y="0px"
	 viewBox="0 0 612 792" style="enable-background:new 0 0 612 792;" xml:space="preserve">
<path d="M312.1,394c-1.1,0.6-1.7,1.8-1.7,3c0,1.4,0.8,2.7,2.1,3.2c-0.2,0.8-0.6,1.6-1.1,2.3c-0.7,1-1.4,2-2.5,2
	c-1.1,0-1.4-0.6-2.6-0.6c-1.2,0-1.7,0.7-2.6,0.7c-1,0-1.7-0.9-2.5-2c-1.1-1.6-1.6-3.4-1.7-5.3c0-3.1,2-4.7,4-4.7
	c1.1,0,1.9,0.7,2.6,0.7c0.6,0,1.6-0.7,2.8-0.7C310.2,392.4,311.3,392.9,312.1,394z M308.3,391.1c0.5-0.6,0.8-1.4,0.8-2.2
	c0-0.1,0-0.2,0-0.3c-0.9,0.1-1.7,0.5-2.3,1.2c-0.5,0.6-0.8,1.4-0.9,2.2c0,0.1,0,0.2,0,0.3c0.1,0,0.1,0,0.2,0
	C307,392.1,307.8,391.7,308.3,391.1z"/>
</svg>
